<svg
	role="img"
	aria-labelledby="aria-logotype"
	width="150.283"
	height="39.158"
	viewBox="0 0 150.283 39.158"
>
	<defs>
		<linearGradient id="a">
			<stop offset="0" style="stop-color:var(--highlight)"/>
			<stop offset=".639" style="stop-color:var(--highlight)"/>
			<stop offset=".8" style="stop-color:var(--foreground)"/>
			<stop offset="1" style="stop-color:var(--foreground)"/>
		</linearGradient>
	</defs>
	<g>
		<path d="m.083 25.35.83-2.232q1.973 1.29 3.176 1.29 2.182 0 2.182-1.835 0-1.315-2.108-2.257-1.625-.745-2.195-1.129-.558-.385-.98-.868-.41-.496-.62-1.042-.199-.558-.199-1.19 0-1.638 1.191-2.556 1.19-.917 3.113-.917 1.451 0 3.659.917l-.67 2.183q-1.401-1.116-2.815-1.116-.844 0-1.427.397-.57.397-.57 1.005 0 1.277 1.451 1.934l1.687.77q1.55.706 2.257 1.612.707.905.707 2.27 0 1.785-1.253 2.802-1.252 1.005-3.472 1.005-2.096 0-3.944-1.042zM19.171 24.62q-1.414 1.773-4.328 1.773-1.563 0-2.716-1.129-1.141-1.14-1.141-2.828 0-2.021 1.76-3.41 1.774-1.402 4.515-1.402.744 0 1.687.323 0-3.225-2.878-3.225-2.207 0-3.398 1.19l-.992-1.971q.67-.546 1.848-.93 1.19-.397 2.27-.397 2.89 0 4.192 1.314 1.314 1.315 1.314 4.18v4.762q0 1.75 1.042 2.332v1.178q-1.439 0-2.158-.409-.707-.41-1.017-1.352zm-.223-4.999q-1.116-.248-1.563-.248-1.786 0-2.914.918-1.129.918-1.129 2.17 0 2.071 2.443 2.071 1.786 0 3.163-1.699zM27.168 12.862v8.47q0 3.076 2.667 3.076 1.166 0 2.133-.67.967-.67 1.277-1.55v-9.326h2.357v13.283h-2.357v-1.836q-.397.781-1.6 1.439-1.19.645-2.331.645-2.183 0-3.349-1.253-1.153-1.253-1.153-3.56v-8.718zM50.266 19.733H40.69q0 2.331 1.277 3.584 1.129 1.091 2.902 1.091 2.022 0 3.374-1.178l.992 1.7q-.546.545-1.674.942-1.414.52-3.15.52-2.506 0-4.254-1.698-1.948-1.873-1.948-5.036 0-3.286 1.997-5.27 1.786-1.774 4.23-1.774 2.84 0 4.452 1.6 1.563 1.538 1.563 4.08 0 .781-.186 1.439zm-5.718-5.135q-1.575 0-2.642 1.017-1.017.967-1.153 2.406h7.354q0-1.426-.892-2.381-.98-1.042-2.667-1.042zM60.415 15.131q-.77-.533-1.55-.533-1.253 0-2.196 1.154-.93 1.153-.93 2.778v7.615h-2.356V12.862h2.356v2.12q1.29-2.368 3.832-2.368.633 0 1.824.223zM71.916 26.145l-4.167-6.648-2.06 2.12v4.528h-2.356V7.417h2.357v11.621l5.085-6.176h2.753l-4.254 5.048 5.197 8.235zM83.628 15.131q-.77-.533-1.55-.533-1.253 0-2.196 1.154-.93 1.153-.93 2.778v7.615h-2.356V12.862h2.356v2.12q1.29-2.368 3.832-2.368.633 0 1.824.223z"/>
		<path d="M94.05 24.62q-1.414 1.773-4.329 1.773-1.562 0-2.716-1.129-1.14-1.14-1.14-2.828 0-2.021 1.76-3.41 1.774-1.402 4.515-1.402.744 0 1.687.323 0-3.225-2.878-3.225-2.207 0-3.398 1.19l-.992-1.971q.67-.546 1.848-.93 1.19-.397 2.27-.397 2.89 0 4.191 1.314 1.315 1.315 1.315 4.18v4.762q0 1.75 1.042 2.332v1.178q-1.439 0-2.158-.409-.707-.41-1.017-1.352zm-.223-4.999q-1.117-.248-1.563-.248-1.786 0-2.915.918-1.128.918-1.128 2.17 0 2.071 2.443 2.071 1.786 0 3.163-1.699zM102.047 12.862v8.47q0 3.076 2.667 3.076 1.165 0 2.133-.67.967-.67 1.277-1.55v-9.326h2.357v13.283h-2.357v-1.836q-.397.781-1.6 1.439-1.19.645-2.331.645-2.183 0-3.349-1.253-1.153-1.253-1.153-3.56v-8.718zM114.8 14.722h-1.537v-1.86h1.538v-2.778l2.356-.906v3.684h3.647v1.86h-3.647v6.598q0 1.674.558 2.381.57.707 1.823.707.906 0 1.873-.459l.347 2.072q-1.463.372-3.212.372-1.575 0-2.666-1.166-1.08-1.178-1.08-2.964zM126.724 7.839q.607 0 1.029.434.434.422.434 1.017 0 .608-.434 1.042-.422.421-1.03.421-.595 0-1.029-.421-.422-.434-.422-1.042 0-.608.422-1.03.422-.421 1.03-.421zm-1.29 18.306V14.846h-1.823v-1.984h4.18v13.283zM130.932 25.35l.831-2.232q1.972 1.29 3.175 1.29 2.183 0 2.183-1.835 0-1.315-2.109-2.257-1.624-.745-2.195-1.129-.558-.385-.98-.868-.409-.496-.62-1.042-.198-.558-.198-1.19 0-1.638 1.19-2.556 1.191-.917 3.114-.917 1.45 0 3.658.917l-.67 2.183q-1.401-1.116-2.815-1.116-.843 0-1.426.397-.57.397-.57 1.005 0 1.277 1.45 1.934l1.687.77q1.55.706 2.257 1.612.707.905.707 2.27 0 1.785-1.252 2.802-1.253 1.005-3.473 1.005-2.096 0-3.944-1.042zM143.19 14.722h-1.538v-1.86h1.538v-2.778l2.356-.906v3.684h3.646v1.86h-3.646v6.598q0 1.674.558 2.381.57.707 1.823.707.906 0 1.873-.459l.347 2.072q-1.463.372-3.212.372-1.575 0-2.666-1.166-1.08-1.178-1.08-2.964z"/>
	</g>
	<path d="M.62.07h120.328v1.323H.62z" style="fill:url(#a)"/>
	<path d="M86.737 37.58h62.377v1.323H86.737z" style="fill:var(--foreground)"/>
</svg>
